   <svg
        width="190"
        height="139"
        viewBox="0 0 190 139"
        fill="none"
        xmlns="http://www.w3.org/2000/svg"
      >
        <path
          d="M153.786 67.8675L155.189 69.2708M155.189 69.2708C154.601 69.8594 154.601 70.8133 155.189 71.4009L159.006 75.2177C159.011 75.2227 159.009 75.2311 159.003 75.2339L156.376 76.4016C149.586 79.4193 142.43 80.7724 133.904 80.7724C122.446 80.7724 114.751 78.2269 108.87 75.1852L106.472 73.9446C106.466 73.9415 106.465 73.9334 106.469 73.9286L110.353 70.0453C110.942 69.4568 110.941 68.5028 110.353 67.9152L95.6503 53.2127C95.367 52.9294 94.9842 52.7709 94.5844 52.7709C94.1849 52.7709 93.802 52.9296 93.5197 53.2121L88.0632 58.669C88.0593 58.6729 88.053 58.6729 88.0491 58.669L46.3749 16.998C46.372 16.9951 46.3712 16.9908 46.3728 16.987L46.8978 15.7589C47.4062 14.5699 47.689 13.2637 47.689 11.889C47.689 6.43784 43.2509 2 37.7994 2C32.3485 2 27.9103 6.43777 27.9103 11.889C27.9103 17.3395 32.3484 21.7773 37.7994 21.7773C39.0219 21.7773 40.1947 21.5431 41.2917 21.126L42.4861 20.6718C42.4898 20.6704 42.494 20.6713 42.4968 20.6741L76.782 54.9572C76.7891 54.9643 76.7824 54.9763 76.7727 54.974L70.0758 53.4363C65.8498 52.466 60.9313 51.8468 55.1463 51.8468C43.7658 51.8468 34.6644 54.088 25.7946 59.045L24.491 59.7735C24.4871 59.7757 24.4822 59.775 24.479 59.7719L19.276 54.5691C18.9927 54.2858 18.6099 54.1274 18.2101 54.1274C17.8106 54.1274 17.4277 54.286 17.1454 54.5685L2.44161 69.2708C1.85281 69.8593 1.85297 70.8131 2.44104 71.4006L17.1448 86.1035C17.427 86.3859 17.8106 86.5452 18.2101 86.5452C18.6099 86.5452 18.9927 86.3868 19.276 86.1035L33.9785 71.4012C34.5672 70.8126 34.5668 69.8587 33.9789 69.2711L28.3663 63.658C28.3614 63.6531 28.3628 63.645 28.3689 63.6419L30.8335 62.4213C36.4216 59.6536 44.038 57.1879 55.1463 57.1879C66.6705 57.1879 74.3786 59.7588 80.2624 62.817L82.6535 64.0598C82.6595 64.0629 82.6607 64.071 82.656 64.0758L78.8164 67.9151C78.2276 68.5036 78.2279 69.4572 78.816 70.0447L93.5203 84.7482C93.8026 85.0307 94.1855 85.1893 94.585 85.1893C94.9848 85.1893 95.3676 85.0309 95.6509 84.7476L101.106 79.2931C101.11 79.2892 101.116 79.2892 101.12 79.2931L143.567 121.737C143.57 121.74 143.571 121.745 143.569 121.748L143.081 122.96C142.619 124.104 142.36 125.344 142.36 126.642C142.36 132.093 146.798 136.531 152.25 136.531C157.701 136.531 162.139 132.093 162.139 126.642C162.139 121.192 157.701 116.754 152.25 116.754C150.952 116.754 149.711 117.012 148.567 117.474L147.355 117.962C147.352 117.964 147.347 117.963 147.344 117.96L112.44 83.0584C112.433 83.0513 112.44 83.0393 112.45 83.0416L119.119 84.5554C123.316 85.5079 128.187 86.114 133.904 86.114C144.503 86.114 153.347 84.083 161.625 79.7935L162.908 79.1285C162.912 79.1265 162.916 79.1273 162.919 79.1303L169.892 86.1035C170.176 86.3868 170.558 86.5452 170.958 86.5452C171.358 86.5452 171.741 86.3866 172.023 86.1041L186.727 71.4012C187.315 70.8127 187.315 69.859 186.727 69.2714L172.023 54.5686C171.741 54.2861 171.357 54.1268 170.958 54.1268C170.558 54.1268 170.175 54.2852 169.892 54.5686L155.189 69.2708Z"
          stroke="#BDE4E6"
          stroke-width="4"
          stroke-linecap="round"
          stroke-linejoin="round"
          className="svg-elem-1"
        ></path>
      </svg>